<svg xmlns="http://www.w3.org/2000/svg" xmlns:xlink="http://www.w3.org/1999/xlink" width="1600" zoomAndPan="magnify" viewBox="0 0 1200 675.000002" height="900" preserveAspectRatio="xMidYMid meet" version="1.0"><defs><g/></defs><g fill="#000000" fill-opacity="1"><g transform="translate(392.827664, 327.29324)"><g><path d="M 114.472656 -54.738281 L 102.089844 -54.738281 L 102.089844 -89.058594 L 78.632812 -89.058594 L 73.636719 -54.738281 L 43.441406 -54.738281 L 81.671875 -144.449219 L 51.046875 -144.449219 L 3.476562 -33.234375 L 3.476562 -27.585938 L 72.765625 -27.585938 L 72.765625 0 L 102.089844 0 L 102.089844 -27.585938 L 114.472656 -27.585938 Z M 114.472656 -54.738281 "/></g></g></g><g fill="#000000" fill-opacity="1"><g transform="translate(513.81594, 327.29324)"><g><path d="M 68.640625 2.605469 C 104.699219 2.605469 127.289062 -26.28125 127.289062 -72.332031 C 127.289062 -118.382812 104.914062 -147.054688 68.640625 -147.054688 C 32.582031 -147.054688 10.210938 -118.382812 10.210938 -72.332031 C 10.210938 -26.28125 32.800781 2.605469 68.640625 2.605469 Z M 68.640625 -26.28125 C 51.046875 -26.28125 41.488281 -42.574219 41.488281 -72.332031 C 41.488281 -101.875 51.046875 -118.164062 68.640625 -118.164062 C 86.234375 -118.164062 96.007812 -101.65625 96.007812 -72.113281 C 96.007812 -42.355469 86.453125 -26.28125 68.640625 -26.28125 Z M 68.640625 -26.28125 "/></g></g></g><g fill="#000000" fill-opacity="1"><g transform="translate(651.529707, 327.29324)"><g><path d="M 7.386719 -144.449219 L 7.386719 -117.078125 L 29.757812 -117.078125 L 29.757812 0 L 60.386719 0 L 60.386719 -144.449219 Z M 7.386719 -144.449219 "/></g></g></g><g fill="#000000" fill-opacity="1"><g transform="translate(388.872706, 408.665882)"><g><path d="M 10.910156 0.300781 C 15.71875 0.300781 19.480469 -2.144531 19.480469 -7.648438 L 19.480469 -21.839844 L 14.945312 -21.839844 L 14.945312 -8.265625 C 14.945312 -4.957031 13.164062 -3.703125 10.910156 -3.703125 C 8.675781 -3.703125 6.90625 -4.941406 6.90625 -8.265625 L 6.90625 -21.839844 L 2.371094 -21.839844 L 2.371094 -7.648438 C 2.371094 -2.144531 6.121094 0.300781 10.910156 0.300781 Z M 10.910156 0.300781 "/></g></g></g><g fill="#000000" fill-opacity="1"><g transform="translate(410.725268, 408.665882)"><g><path d="M 17.742188 -21.839844 L 17.742188 -6.316406 L 8.011719 -21.839844 L 2.824219 -21.839844 L 2.824219 0 L 7.34375 0 L 7.34375 -15.613281 L 17.015625 0 L 22.261719 0 L 22.261719 -21.839844 Z M 17.742188 -21.839844 "/></g></g></g><g fill="#000000" fill-opacity="1"><g transform="translate(435.811889, 408.665882)"><g><path d="M 17.441406 0 L 22.082031 0 L 14.039062 -21.839844 L 8.492188 -21.839844 L 0.453125 0 L 5.09375 0 L 6.679688 -4.503906 L 15.855469 -4.503906 Z M 8.011719 -8.296875 L 11.273438 -17.5625 L 14.523438 -8.296875 Z M 8.011719 -8.296875 "/></g></g></g><g fill="#000000" fill-opacity="1"><g transform="translate(458.344517, 408.665882)"><g><path d="M 10.910156 0.300781 C 15.71875 0.300781 19.480469 -2.144531 19.480469 -7.648438 L 19.480469 -21.839844 L 14.945312 -21.839844 L 14.945312 -8.265625 C 14.945312 -4.957031 13.164062 -3.703125 10.910156 -3.703125 C 8.675781 -3.703125 6.90625 -4.941406 6.90625 -8.265625 L 6.90625 -21.839844 L 2.371094 -21.839844 L 2.371094 -7.648438 C 2.371094 -2.144531 6.121094 0.300781 10.910156 0.300781 Z M 10.910156 0.300781 "/></g></g></g><g fill="#000000" fill-opacity="1"><g transform="translate(480.197079, 408.665882)"><g><path d="M 15.492188 -21.839844 L 0.605469 -21.839844 L 0.605469 -17.847656 L 5.820312 -17.847656 L 5.820312 0 L 10.308594 0 L 10.308594 -17.847656 L 15.492188 -17.847656 Z M 15.492188 -21.839844 "/></g></g></g><g fill="#000000" fill-opacity="1"><g transform="translate(496.291814, 408.665882)"><g><path d="M 2.824219 0 L 7.359375 0 L 7.359375 -8.976562 L 16.59375 -8.976562 L 16.59375 0 L 21.128906 0 L 21.128906 -21.839844 L 16.59375 -21.839844 L 16.59375 -12.921875 L 7.359375 -12.921875 L 7.359375 -21.839844 L 2.824219 -21.839844 Z M 2.824219 0 "/></g></g></g><g fill="#000000" fill-opacity="1"><g transform="translate(520.245008, 408.665882)"><g><path d="M 12.5 0.300781 C 18.90625 0.300781 23.652344 -4.082031 23.652344 -10.925781 C 23.652344 -17.789062 18.90625 -22.140625 12.5 -22.140625 C 6.074219 -22.140625 1.328125 -17.789062 1.328125 -10.925781 C 1.328125 -4.082031 6.074219 0.300781 12.5 0.300781 Z M 12.5 -3.855469 C 8.734375 -3.855469 5.847656 -6.5 5.847656 -10.925781 C 5.847656 -15.339844 8.734375 -17.96875 12.5 -17.96875 C 16.261719 -17.96875 19.148438 -15.339844 19.148438 -10.925781 C 19.148438 -6.5 16.261719 -3.855469 12.5 -3.855469 Z M 12.5 -3.855469 "/></g></g></g><g fill="#000000" fill-opacity="1"><g transform="translate(545.240954, 408.665882)"><g><path d="M 14.359375 0 L 19.722656 0 L 13.902344 -8.476562 C 14.433594 -8.628906 14.886719 -8.8125 15.292969 -9.039062 C 17.5 -10.203125 18.394531 -12.378906 18.394531 -15.113281 C 18.394531 -17.710938 17.515625 -19.78125 15.386719 -20.917969 C 14.25 -21.492188 12.785156 -21.839844 10.003906 -21.839844 L 2.824219 -21.839844 L 2.824219 0 L 7.359375 0 L 7.359375 -8.054688 L 9.28125 -8.054688 Z M 7.359375 -18.046875 L 9.371094 -18.046875 C 11.125 -18.046875 12.105469 -17.9375 12.800781 -17.410156 C 13.449219 -16.894531 13.828125 -16.050781 13.828125 -14.824219 C 13.828125 -13.542969 13.449219 -12.679688 12.710938 -12.167969 C 12.046875 -11.699219 11.09375 -11.621094 9.371094 -11.621094 L 7.359375 -11.621094 Z M 7.359375 -18.046875 "/></g></g></g><g fill="#000000" fill-opacity="1"><g transform="translate(565.778742, 408.665882)"><g><path d="M 2.824219 0 L 7.359375 0 L 7.359375 -21.839844 L 2.824219 -21.839844 Z M 2.824219 0 "/></g></g></g><g fill="#000000" fill-opacity="1"><g transform="translate(575.949408, 408.665882)"><g><path d="M 6.800781 -4.003906 L 17.09375 -18.257812 L 17.09375 -21.839844 L 1.390625 -21.839844 L 1.390625 -17.847656 L 11.726562 -17.847656 L 1.375 -3.582031 L 1.375 0 L 17.289062 0 L 17.289062 -4.003906 Z M 6.800781 -4.003906 "/></g></g></g><g fill="#000000" fill-opacity="1"><g transform="translate(594.567911, 408.665882)"><g><path d="M 15.492188 -17.847656 L 15.492188 -21.839844 L 2.824219 -21.839844 L 2.824219 0 L 15.492188 0 L 15.492188 -4.003906 L 7.390625 -4.003906 L 7.390625 -8.945312 L 14.570312 -8.945312 L 14.570312 -12.890625 L 7.390625 -12.890625 L 7.390625 -17.847656 Z M 15.492188 -17.847656 "/></g></g></g><g fill="#000000" fill-opacity="1"><g transform="translate(611.901865, 408.665882)"><g><path d="M 2.824219 0 L 10.730469 0 C 17.699219 0 21.144531 -4.382812 21.144531 -10.925781 C 21.144531 -17.457031 17.699219 -21.839844 10.730469 -21.839844 L 2.824219 -21.839844 Z M 7.359375 -4.003906 L 7.359375 -17.847656 L 10.503906 -17.847656 C 14.523438 -17.847656 16.367188 -15.339844 16.367188 -10.925781 C 16.367188 -6.515625 14.523438 -4.003906 10.503906 -4.003906 Z M 7.359375 -4.003906 "/></g></g></g><g fill="#000000" fill-opacity="1"><g transform="translate(634.464728, 408.665882)"><g/></g></g><g fill="#000000" fill-opacity="1"><g transform="translate(642.504536, 408.665882)"><g><path d="M 17.441406 0 L 22.082031 0 L 14.039062 -21.839844 L 8.492188 -21.839844 L 0.453125 0 L 5.09375 0 L 6.679688 -4.503906 L 15.855469 -4.503906 Z M 8.011719 -8.296875 L 11.273438 -17.5625 L 14.523438 -8.296875 Z M 8.011719 -8.296875 "/></g></g></g><g fill="#000000" fill-opacity="1"><g transform="translate(665.037164, 408.665882)"><g><path d="M 12.5 0.300781 C 17.363281 0.300781 21.265625 -2.207031 22.820312 -6.347656 L 18.589844 -7.890625 C 17.621094 -5.351562 15.308594 -3.867188 12.5 -3.867188 C 8.734375 -3.867188 5.847656 -6.515625 5.847656 -10.925781 C 5.847656 -15.339844 8.734375 -17.96875 12.5 -17.96875 C 15.308594 -17.96875 17.621094 -16.503906 18.589844 -13.964844 L 22.820312 -15.507812 C 21.265625 -19.648438 17.363281 -22.140625 12.5 -22.140625 C 6.074219 -22.140625 1.328125 -17.789062 1.328125 -10.925781 C 1.328125 -4.066406 6.074219 0.300781 12.5 0.300781 Z M 12.5 0.300781 "/></g></g></g><g fill="#000000" fill-opacity="1"><g transform="translate(688.748548, 408.665882)"><g><path d="M 12.5 0.300781 C 17.363281 0.300781 21.265625 -2.207031 22.820312 -6.347656 L 18.589844 -7.890625 C 17.621094 -5.351562 15.308594 -3.867188 12.5 -3.867188 C 8.734375 -3.867188 5.847656 -6.515625 5.847656 -10.925781 C 5.847656 -15.339844 8.734375 -17.96875 12.5 -17.96875 C 15.308594 -17.96875 17.621094 -16.503906 18.589844 -13.964844 L 22.820312 -15.507812 C 21.265625 -19.648438 17.363281 -22.140625 12.5 -22.140625 C 6.074219 -22.140625 1.328125 -17.789062 1.328125 -10.925781 C 1.328125 -4.066406 6.074219 0.300781 12.5 0.300781 Z M 12.5 0.300781 "/></g></g></g><g fill="#000000" fill-opacity="1"><g transform="translate(712.459955, 408.665882)"><g><path d="M 15.492188 -17.847656 L 15.492188 -21.839844 L 2.824219 -21.839844 L 2.824219 0 L 15.492188 0 L 15.492188 -4.003906 L 7.390625 -4.003906 L 7.390625 -8.945312 L 14.570312 -8.945312 L 14.570312 -12.890625 L 7.390625 -12.890625 L 7.390625 -17.847656 Z M 15.492188 -17.847656 "/></g></g></g><g fill="#000000" fill-opacity="1"><g transform="translate(729.793909, 408.665882)"><g><path d="M 10.09375 0.300781 C 14.855469 0.300781 18.242188 -2.070312 18.242188 -6.226562 C 18.242188 -10.65625 14.359375 -11.910156 11.046875 -12.90625 C 8.570312 -13.648438 6.421875 -14.160156 6.421875 -15.988281 C 6.421875 -17.667969 7.980469 -18.4375 9.808594 -18.4375 C 11.863281 -18.4375 13.328125 -17.484375 14.011719 -15.386719 L 18.121094 -16.398438 C 17.242188 -20.585938 13.375 -22.140625 9.535156 -22.140625 C 5.152344 -22.140625 1.828125 -19.84375 1.828125 -15.824219 C 1.828125 -11.742188 5.257812 -10.578125 8.464844 -9.582031 C 11.125 -8.765625 13.542969 -8.128906 13.554688 -5.984375 C 13.570312 -4.214844 12.105469 -3.402344 10.171875 -3.402344 C 7.890625 -3.402344 6.195312 -4.5625 5.5625 -7.074219 L 1.074219 -6.046875 C 1.738281 -1.949219 5.394531 0.300781 10.09375 0.300781 Z M 10.09375 0.300781 "/></g></g></g><g fill="#000000" fill-opacity="1"><g transform="translate(749.394738, 408.665882)"><g><path d="M 10.09375 0.300781 C 14.855469 0.300781 18.242188 -2.070312 18.242188 -6.226562 C 18.242188 -10.65625 14.359375 -11.910156 11.046875 -12.90625 C 8.570312 -13.648438 6.421875 -14.160156 6.421875 -15.988281 C 6.421875 -17.667969 7.980469 -18.4375 9.808594 -18.4375 C 11.863281 -18.4375 13.328125 -17.484375 14.011719 -15.386719 L 18.121094 -16.398438 C 17.242188 -20.585938 13.375 -22.140625 9.535156 -22.140625 C 5.152344 -22.140625 1.828125 -19.84375 1.828125 -15.824219 C 1.828125 -11.742188 5.257812 -10.578125 8.464844 -9.582031 C 11.125 -8.765625 13.542969 -8.128906 13.554688 -5.984375 C 13.570312 -4.214844 12.105469 -3.402344 10.171875 -3.402344 C 7.890625 -3.402344 6.195312 -4.5625 5.5625 -7.074219 L 1.074219 -6.046875 C 1.738281 -1.949219 5.394531 0.300781 10.09375 0.300781 Z M 10.09375 0.300781 "/></g></g></g><g fill="#000000" fill-opacity="1"><g transform="translate(768.993148, 408.665882)"><g/></g></g><path stroke-linecap="butt" transform="matrix(3.744453, 0, 0, 3.744453, 370.272752, 352.432368)" fill="none" stroke-linejoin="miter" d="M 0.000183133 0.000327481 L 113.599484 0.000327481 " stroke="#000000" stroke-width="1" stroke-opacity="1" stroke-miterlimit="4"/></svg>